<?xml version="1.0" encoding="utf-8"?>
<!-- Generator: Adobe Illustrator 18.1.1, SVG Export Plug-In . SVG Version: 6.00 Build 0)  -->
<svg version="1.1" id="图层_1" xmlns="http://www.w3.org/2000/svg" xmlns:xlink="http://www.w3.org/1999/xlink" x="0px" y="0px"
	 viewBox="0 0 342.6 205.6" enable-background="new 0 0 342.6 205.6" xml:space="preserve">
<polygon fill="#F5D646" points="104,82.6 129.3,62 141.7,72.3 141.7,113.2 "/>
<g>
	<defs>
		<polygon id="SVGID_1_" points="122.3,129 85,161.2 104,178.1 141.7,145.2 		"/>
	</defs>
	<clipPath id="SVGID_2_">
		<use xlink:href="#SVGID_1_"  overflow="visible"/>
	</clipPath>
	<defs>
		<filter id="Adobe_OpacityMaskFilter" filterUnits="userSpaceOnUse" x="60.6" y="100.8" width="105.4" height="105.4">
			<feColorMatrix  type="matrix" values="1 0 0 0 0  0 1 0 0 0  0 0 1 0 0  0 0 0 1 0"/>
		</filter>
	</defs>
	<mask maskUnits="userSpaceOnUse" x="60.6" y="100.8" width="105.4" height="105.4" id="SVGID_3_">
		<g filter="url(#Adobe_OpacityMaskFilter)">
			
				<linearGradient id="SVGID_4_" gradientUnits="userSpaceOnUse" x1="-235.375" y1="419.565" x2="-233.6473" y2="419.565" gradientTransform="matrix(-41.4174 36.866 36.866 41.4174 -25082.2793 -8564.8193)">
				<stop  offset="0" style="stop-color:#FFFFFF"/>
				<stop  offset="1" style="stop-color:#000000"/>
			</linearGradient>
			<polygon clip-path="url(#SVGID_2_)" fill="url(#SVGID_4_)" points="166.1,156.4 110.1,206.2 60.6,150.7 116.6,100.8 			"/>
		</g>
	</mask>
	
		<linearGradient id="SVGID_5_" gradientUnits="userSpaceOnUse" x1="-235.3751" y1="419.565" x2="-233.6485" y2="419.565" gradientTransform="matrix(-41.4174 36.866 36.866 41.4174 -25082.2793 -8564.8193)">
		<stop  offset="0" style="stop-color:#570F10"/>
		<stop  offset="1" style="stop-color:#EA621C"/>
	</linearGradient>
	<polygon clip-path="url(#SVGID_2_)" mask="url(#SVGID_3_)" fill="url(#SVGID_5_)" points="166.1,156.4 110.1,206.2 60.6,150.7 
		116.6,100.8 	"/>
</g>
<g>
	<defs>
		<polygon id="SVGID_6_" points="141.6,113.2 122.3,129 141.7,145.2 		"/>
	</defs>
	<clipPath id="SVGID_7_">
		<use xlink:href="#SVGID_6_"  overflow="visible"/>
	</clipPath>
	<defs>
		<filter id="Adobe_OpacityMaskFilter_1_" filterUnits="userSpaceOnUse" x="106.4" y="103.6" width="51.2" height="51.3">
			<feColorMatrix  type="matrix" values="1 0 0 0 0  0 1 0 0 0  0 0 1 0 0  0 0 0 1 0"/>
		</filter>
	</defs>
	<mask maskUnits="userSpaceOnUse" x="106.4" y="103.6" width="51.2" height="51.3" id="SVGID_8_">
		<g filter="url(#Adobe_OpacityMaskFilter_1_)">
			
				<linearGradient id="SVGID_9_" gradientUnits="userSpaceOnUse" x1="-231.9842" y1="424.3095" x2="-230.2571" y2="424.3095" gradientTransform="matrix(10.0124 9.1022 9.1022 -10.0124 -1412.913 6484.1816)">
				<stop  offset="0" style="stop-color:#FFFFFF"/>
				<stop  offset="0.2648" style="stop-color:#AEAEAE"/>
				<stop  offset="0.5295" style="stop-color:#646464"/>
				<stop  offset="0.7483" style="stop-color:#2E2E2E"/>
				<stop  offset="0.9112" style="stop-color:#0D0D0D"/>
				<stop  offset="1" style="stop-color:#000000"/>
			</linearGradient>
			<polygon clip-path="url(#SVGID_7_)" fill="url(#SVGID_9_)" points="131,103.6 157.6,127.7 132.9,154.8 106.4,130.7 			"/>
		</g>
	</mask>
	
		<linearGradient id="SVGID_10_" gradientUnits="userSpaceOnUse" x1="-231.9834" y1="424.3096" x2="-230.2562" y2="424.3096" gradientTransform="matrix(10.0124 9.1022 9.1022 -10.0124 -1412.913 6484.1836)">
		<stop  offset="0" style="stop-color:#4E1112"/>
		<stop  offset="0.3092" style="stop-color:#842B1A"/>
		<stop  offset="0.6288" style="stop-color:#BA471D"/>
		<stop  offset="0.869" style="stop-color:#DD5A1D"/>
		<stop  offset="1" style="stop-color:#EA621C"/>
	</linearGradient>
	<polygon clip-path="url(#SVGID_7_)" mask="url(#SVGID_8_)" fill="url(#SVGID_10_)" points="131,103.6 157.6,127.7 132.9,154.8 
		106.4,130.7 	"/>
</g>
<g>
	<defs>
		<polygon id="SVGID_11_" points="103.9,27.5 122.3,47 112.7,54.8 103.9,45.7 95.2,54.8 85.7,47.1 		"/>
	</defs>
	<use xlink:href="#SVGID_11_"  overflow="visible" fill="#F5B318"/>
	<clipPath id="SVGID_12_">
		<use xlink:href="#SVGID_11_"  overflow="visible"/>
	</clipPath>
	<defs>
		<filter id="Adobe_OpacityMaskFilter_2_" filterUnits="userSpaceOnUse" x="85.6" y="19.5" width="36.8" height="35.5">
			<feColorMatrix  type="matrix" values="1 0 0 0 0  0 1 0 0 0  0 0 1 0 0  0 0 0 1 0"/>
		</filter>
	</defs>
	<mask maskUnits="userSpaceOnUse" x="85.6" y="19.5" width="36.8" height="35.5" id="SVGID_13_">
		<g filter="url(#Adobe_OpacityMaskFilter_2_)">
			
				<linearGradient id="SVGID_14_" gradientUnits="userSpaceOnUse" x1="-239.5332" y1="422.7943" x2="-237.3198" y2="422.7943" gradientTransform="matrix(-8.670000e-02 16.4716 16.4716 8.670000e-02 -6880.7124 3917.084)">
				<stop  offset="0" style="stop-color:#FFFFFF"/>
				<stop  offset="0.1083" style="stop-color:#FAFAFA"/>
				<stop  offset="0.2321" style="stop-color:#ECECEC"/>
				<stop  offset="0.3636" style="stop-color:#D6D6D6"/>
				<stop  offset="0.5004" style="stop-color:#B5B5B5"/>
				<stop  offset="0.6413" style="stop-color:#8C8C8C"/>
				<stop  offset="0.7858" style="stop-color:#5A5A5A"/>
				<stop  offset="0.9304" style="stop-color:#1F1F1F"/>
				<stop  offset="1" style="stop-color:#000000"/>
			</linearGradient>
			<polygon clip-path="url(#SVGID_12_)" fill="url(#SVGID_14_)" points="122.4,19.7 122.3,55 85.6,54.8 85.7,19.5 			"/>
		</g>
	</mask>
	
		<linearGradient id="SVGID_15_" gradientUnits="userSpaceOnUse" x1="-239.5331" y1="422.7943" x2="-237.3196" y2="422.7943" gradientTransform="matrix(-8.670000e-02 16.4716 16.4716 8.670000e-02 -6880.7124 3917.084)">
		<stop  offset="0" style="stop-color:#FEFAE7"/>
		<stop  offset="0.1272" style="stop-color:#FEF9E3"/>
		<stop  offset="0.2726" style="stop-color:#FDF6D8"/>
		<stop  offset="0.4269" style="stop-color:#FCF1C4"/>
		<stop  offset="0.5874" style="stop-color:#FAEAA7"/>
		<stop  offset="0.7529" style="stop-color:#F9E17F"/>
		<stop  offset="0.92" style="stop-color:#F6D749"/>
		<stop  offset="1" style="stop-color:#F4D221"/>
	</linearGradient>
	<polygon clip-path="url(#SVGID_12_)" mask="url(#SVGID_13_)" fill="url(#SVGID_15_)" points="122.4,19.7 122.3,55 85.6,54.8 
		85.7,19.5 	"/>
</g>
<polygon fill="#F5B318" points="66.5,72.3 79,62 141.6,113.3 85,161.2 66.5,145.2 "/>
<g>
	<defs>
		<polygon id="SVGID_16_" points="66.5,72.3 79,62 141.6,113.2 85,161.2 66.5,145.2 		"/>
	</defs>
	<clipPath id="SVGID_17_">
		<use xlink:href="#SVGID_16_"  overflow="visible"/>
	</clipPath>
	<defs>
		<filter id="Adobe_OpacityMaskFilter_3_" filterUnits="userSpaceOnUse" x="59.7" y="56.8" width="88.8" height="109.6">
			<feColorMatrix  type="matrix" values="1 0 0 0 0  0 1 0 0 0  0 0 1 0 0  0 0 0 1 0"/>
		</filter>
	</defs>
	<mask maskUnits="userSpaceOnUse" x="59.7" y="56.8" width="88.8" height="109.6" id="SVGID_18_">
		<g filter="url(#Adobe_OpacityMaskFilter_3_)">
			
				<linearGradient id="SVGID_19_" gradientUnits="userSpaceOnUse" x1="-235.518" y1="420.254" x2="-233.7913" y2="420.254" gradientTransform="matrix(-3.5 50.75 50.75 3.5 -22042.9297 10517.8535)">
				<stop  offset="0" style="stop-color:#FFFFFF"/>
				<stop  offset="1" style="stop-color:#000000"/>
			</linearGradient>
			<polygon clip-path="url(#SVGID_17_)" fill="url(#SVGID_19_)" points="148.5,62.4 141.3,166.4 59.7,160.7 66.9,56.8 			"/>
		</g>
	</mask>
	
		<linearGradient id="SVGID_20_" gradientUnits="userSpaceOnUse" x1="-235.5201" y1="420.2521" x2="-233.7934" y2="420.2521" gradientTransform="matrix(-3.5 50.75 50.75 3.5 -22042.8359 10517.8848)">
		<stop  offset="0" style="stop-color:#FED30E"/>
		<stop  offset="1" style="stop-color:#FFF000"/>
	</linearGradient>
	<polygon clip-path="url(#SVGID_17_)" mask="url(#SVGID_18_)" fill="url(#SVGID_20_)" points="148.5,62.4 141.3,166.4 59.7,160.7 
		66.9,56.8 	"/>
</g>
<g>
	<defs>
		<polygon id="SVGID_21_" points="122.3,129 85,161.2 104,178.1 141.7,145.2 		"/>
	</defs>
	<use xlink:href="#SVGID_21_"  overflow="visible" fill="#E3A12B"/>
	<clipPath id="SVGID_22_">
		<use xlink:href="#SVGID_21_"  overflow="visible"/>
	</clipPath>
	<defs>
		<filter id="Adobe_OpacityMaskFilter_4_" filterUnits="userSpaceOnUse" x="60.5" y="100.7" width="105.7" height="105.7">
			<feColorMatrix  type="matrix" values="1 0 0 0 0  0 1 0 0 0  0 0 1 0 0  0 0 0 1 0"/>
		</filter>
	</defs>
	<mask maskUnits="userSpaceOnUse" x="60.5" y="100.7" width="105.7" height="105.7" id="SVGID_23_">
		<g filter="url(#Adobe_OpacityMaskFilter_4_)">
			
				<linearGradient id="SVGID_24_" gradientUnits="userSpaceOnUse" x1="-235.5413" y1="419.6673" x2="-233.8144" y2="419.6673" gradientTransform="matrix(-34.3935 32.6298 32.6298 34.3935 -21665.123 -6610.0654)">
				<stop  offset="0" style="stop-color:#FFFFFF"/>
				<stop  offset="1" style="stop-color:#000000"/>
			</linearGradient>
			<polygon clip-path="url(#SVGID_22_)" fill="url(#SVGID_24_)" points="166.2,154.8 111.9,206.4 60.5,152.2 114.8,100.7 			"/>
		</g>
	</mask>
	
		<linearGradient id="SVGID_25_" gradientUnits="userSpaceOnUse" x1="-235.541" y1="419.6685" x2="-233.8142" y2="419.6685" gradientTransform="matrix(-34.3935 32.6298 32.6298 34.3935 -21665.123 -6610.1382)">
		<stop  offset="0" style="stop-color:#C65D13"/>
		<stop  offset="1" style="stop-color:#FFF000"/>
	</linearGradient>
	<polygon clip-path="url(#SVGID_22_)" mask="url(#SVGID_23_)" fill="url(#SVGID_25_)" points="166.2,154.8 111.9,206.4 60.5,152.2 
		114.8,100.7 	"/>
</g>
<polygon fill="#F4B62D" points="141.6,113.2 122.3,129 141.7,145.2 "/>
<g>
	<defs>
		<polygon id="SVGID_26_" points="141.7,113.2 122.3,129 141.7,145.2 		"/>
	</defs>
	<clipPath id="SVGID_27_">
		<use xlink:href="#SVGID_26_"  overflow="visible"/>
	</clipPath>
	<defs>
		<filter id="Adobe_OpacityMaskFilter_5_" filterUnits="userSpaceOnUse" x="106.3" y="103.5" width="51.3" height="51.3">
			<feColorMatrix  type="matrix" values="1 0 0 0 0  0 1 0 0 0  0 0 1 0 0  0 0 0 1 0"/>
		</filter>
	</defs>
	<mask maskUnits="userSpaceOnUse" x="106.3" y="103.5" width="51.3" height="51.3" id="SVGID_28_">
		<g filter="url(#Adobe_OpacityMaskFilter_5_)">
			
				<linearGradient id="SVGID_29_" gradientUnits="userSpaceOnUse" x1="-232.6225" y1="423.0007" x2="-230.8951" y2="423.0007" gradientTransform="matrix(13.2852 12.7681 12.7681 -13.2852 -2183.9863 8713.7451)">
				<stop  offset="0" style="stop-color:#FFFFFF"/>
				<stop  offset="1" style="stop-color:#000000"/>
			</linearGradient>
			<polygon clip-path="url(#SVGID_27_)" fill="url(#SVGID_29_)" points="131.6,103.5 157.6,128.6 132.4,154.9 106.3,129.8 			"/>
		</g>
	</mask>
	
		<linearGradient id="SVGID_30_" gradientUnits="userSpaceOnUse" x1="-232.6225" y1="423.0006" x2="-230.8951" y2="423.0006" gradientTransform="matrix(13.2852 12.7681 12.7681 -13.2852 -2183.9863 8713.7451)">
		<stop  offset="0" style="stop-color:#C65D13"/>
		<stop  offset="1" style="stop-color:#FFF000"/>
	</linearGradient>
	<polygon clip-path="url(#SVGID_27_)" mask="url(#SVGID_28_)" fill="url(#SVGID_30_)" points="131.6,103.5 157.6,128.6 132.4,154.9 
		106.3,129.8 	"/>
</g>
<g>
	<path fill="#FED30F" d="M168.6,79.5c0-1.3,0.3-2.4,0.9-3.3c0.6-0.9,1.4-1.6,2.3-2.2c1-0.6,2-1,3.2-1.2c1.2-0.3,2.3-0.4,3.4-0.4
		c0.8,0,1.6,0.1,2.4,0.2s1.6,0.4,2.4,0.7c0.8,0.3,1.5,0.7,2.2,1.2s1.3,1,1.8,1.6l-2.9,2.6c-0.9-0.9-1.8-1.5-2.9-1.8
		c-1-0.3-2.2-0.5-3.4-0.5c-0.6,0-1.2,0.1-1.7,0.2c-0.6,0.1-1.1,0.3-1.6,0.5c-0.5,0.2-0.9,0.5-1.2,0.9c-0.3,0.4-0.5,0.8-0.5,1.4
		c0,0.6,0.1,1.1,0.2,1.5c0.2,0.4,0.4,0.7,0.7,1c0.3,0.3,0.7,0.5,1.1,0.7c0.4,0.2,0.9,0.4,1.4,0.5c1.2,0.4,2.4,0.7,3.6,1
		c1.2,0.3,2.4,0.7,3.6,1.3c1.3,0.6,2.4,1.5,3.1,2.5c0.8,1,1.2,2.4,1.2,4c0,1.4-0.3,2.6-0.9,3.6s-1.4,1.8-2.3,2.4c-1,0.6-2,1-3.2,1.3
		c-1.2,0.2-2.4,0.4-3.6,0.4c-1.1,0-2.1-0.1-3.1-0.4c-1-0.2-2-0.6-2.9-1.1c-0.9-0.5-1.7-1.1-2.5-1.8c-0.8-0.7-1.4-1.5-1.9-2.5
		l3.5-1.8c0.7,1.1,1.7,2,2.8,2.6c1.2,0.6,2.5,0.9,4.1,0.9c0.7,0,1.4-0.1,2.1-0.2c0.7-0.1,1.3-0.3,1.8-0.6c0.5-0.3,1-0.6,1.3-1.1
		c0.3-0.5,0.5-1,0.5-1.7c0-0.6-0.1-1.1-0.3-1.4c-0.2-0.4-0.4-0.7-0.8-1c-0.3-0.2-0.7-0.5-1.1-0.6c-0.4-0.2-0.9-0.3-1.4-0.5
		c-1.2-0.4-2.5-0.8-3.7-1.1s-2.5-0.7-3.6-1.3c-0.7-0.3-1.2-0.7-1.8-1s-1-0.8-1.4-1.3s-0.7-1.1-0.9-1.8S168.6,80.5,168.6,79.5z"/>
	<path fill="#FED30F" d="M195.9,72.9V99h-4.2V72.9H195.9z"/>
	<path fill="#FED30F" d="M200.5,79.5c0-1.3,0.3-2.4,0.9-3.3c0.6-0.9,1.4-1.6,2.3-2.2c1-0.6,2-1,3.2-1.2c1.2-0.3,2.3-0.4,3.4-0.4
		c0.8,0,1.6,0.1,2.4,0.2s1.6,0.4,2.4,0.7c0.8,0.3,1.5,0.7,2.2,1.2s1.3,1,1.8,1.6l-2.9,2.6c-0.9-0.9-1.8-1.5-2.9-1.8
		c-1-0.3-2.2-0.5-3.4-0.5c-0.6,0-1.2,0.1-1.7,0.2c-0.6,0.1-1.1,0.3-1.6,0.5c-0.5,0.2-0.9,0.5-1.2,0.9c-0.3,0.4-0.5,0.8-0.5,1.4
		c0,0.6,0.1,1.1,0.2,1.5c0.2,0.4,0.4,0.7,0.7,1c0.3,0.3,0.7,0.5,1.1,0.7c0.4,0.2,0.9,0.4,1.4,0.5c1.2,0.4,2.4,0.7,3.6,1
		c1.2,0.3,2.4,0.7,3.6,1.3c1.3,0.6,2.4,1.5,3.1,2.5c0.8,1,1.2,2.4,1.2,4c0,1.4-0.3,2.6-0.9,3.6s-1.4,1.8-2.3,2.4c-1,0.6-2,1-3.2,1.3
		c-1.2,0.2-2.4,0.4-3.6,0.4c-1.1,0-2.1-0.1-3.1-0.4c-1-0.2-2-0.6-2.9-1.1c-0.9-0.5-1.7-1.1-2.5-1.8c-0.8-0.7-1.4-1.5-1.9-2.5L203,92
		c0.7,1.1,1.7,2,2.8,2.6c1.2,0.6,2.5,0.9,4.1,0.9c0.7,0,1.4-0.1,2.1-0.2c0.7-0.1,1.3-0.3,1.8-0.6c0.5-0.3,1-0.6,1.3-1.1
		c0.3-0.5,0.5-1,0.5-1.7c0-0.6-0.1-1.1-0.3-1.4c-0.2-0.4-0.4-0.7-0.8-1c-0.3-0.2-0.7-0.5-1.1-0.6c-0.4-0.2-0.9-0.3-1.4-0.5
		c-1.2-0.4-2.5-0.8-3.7-1.1s-2.5-0.7-3.6-1.3c-0.7-0.3-1.2-0.7-1.8-1s-1-0.8-1.4-1.3s-0.7-1.1-0.9-1.8S200.5,80.5,200.5,79.5z"/>
	<path fill="#FED30F" d="M235.5,99.5c-2.1,0-4-0.3-5.5-1c-1.6-0.7-2.9-1.6-4-2.8c-1.1-1.2-1.8-2.6-2.4-4.3c-0.5-1.7-0.8-3.5-0.8-5.5
		v-1c0-1.8,0.3-3.5,0.9-5.1s1.5-2.9,2.6-3.9c1.1-1.1,2.5-1.9,4-2.6c1.6-0.6,3.3-0.9,5.1-0.9c1.9,0,3.6,0.3,5.1,0.9
		c1.6,0.6,2.9,1.5,4,2.6c1.1,1.1,2,2.4,2.6,3.9c0.6,1.5,0.9,3.2,0.9,5.1v1c0,2-0.3,3.8-0.8,5.5c-0.5,1.7-1.3,3.1-2.4,4.3
		s-2.4,2.1-4,2.8S237.6,99.5,235.5,99.5z M235.5,76.4c-2.8,0-4.8,0.8-6.2,2.3c-1.4,1.6-2.1,3.6-2.1,6.3v0.9c0,1.4,0.1,2.7,0.4,3.8
		c0.3,1.2,0.7,2.2,1.4,3.1c0.7,0.9,1.5,1.5,2.5,2c1,0.5,2.3,0.7,3.9,0.7c1.6,0,2.9-0.2,4-0.7c1.1-0.5,1.9-1.1,2.6-2
		c0.6-0.9,1.1-1.9,1.4-3.1c0.3-1.2,0.4-2.5,0.4-3.9V85c0-2.6-0.7-4.7-2.1-6.3S238.2,76.4,235.5,76.4z"/>
	<path fill="#FFFFFF" d="M185.2,130.3c1.4,0.7,2.4,1.5,3.1,2.6c0.7,1,1.1,2.3,1.1,3.9c0,1.3-0.2,2.4-0.7,3.4
		c-0.5,0.9-1.1,1.7-1.9,2.3s-1.7,1-2.7,1.3c-1,0.3-2.2,0.4-3.4,0.4h-11.9V118h11.4c1.1,0,2.1,0.1,3,0.4c0.9,0.3,1.7,0.7,2.4,1.2
		c0.7,0.6,1.2,1.3,1.6,2.1c0.4,0.9,0.6,1.9,0.6,3c0,2.2-0.9,3.9-2.6,5.3V130.3z M179.7,128.6c1.1,0,1.9-0.3,2.6-0.8
		c0.7-0.6,1-1.5,1-3c0-1.1-0.3-1.9-0.9-2.3c-0.6-0.4-1.5-0.6-2.6-0.6H173v6.6H179.7z M173,132.5v7.7h7.6c1.6,0,2.7-0.4,3.5-1.1
		c0.7-0.7,1.1-1.7,1.1-2.9c0-1.3-0.4-2.3-1.1-2.9c-0.7-0.6-1.8-0.9-3.3-0.9H173z"/>
	<path fill="#FFFFFF" d="M202.1,134.4c-0.3-0.4-0.6-0.6-1.1-0.8c-0.4-0.2-0.9-0.2-1.3-0.2h-2.5v10.7H193V118h12.3
		c1.1,0,2.1,0.2,3,0.5c0.9,0.4,1.7,0.9,2.4,1.5c0.7,0.7,1.2,1.5,1.6,2.4s0.6,1.9,0.6,3.1c0,2.3-0.6,4.1-1.7,5.5
		c-1.1,1.4-2.8,2.2-4.9,2.4l5,6.3c0.4,0.5,0.8,0.8,1.1,1c0.3,0.2,0.8,0.2,1.4,0.2v3.2c-0.3,0.1-0.6,0.2-0.9,0.3
		c-0.4,0.1-0.7,0.1-1,0.1c-0.8,0-1.4-0.3-2-0.8s-1.1-1-1.5-1.6L202.1,134.4z M197.3,129.5h7c1.6,0,2.7-0.3,3.4-0.9
		c0.7-0.6,1-1.6,1-3.1c0-1.2-0.3-2.1-0.9-2.7s-1.6-0.9-3-0.9h-7.5V129.5z"/>
	<path fill="#FFFFFF" d="M223.4,136.7l-2.7,7.4h-4.5l9.7-26.1h5.1l10.2,26.1h-4.4l-2.9-7.4H223.4z M224.6,133h7.9l-3.4-8.8l-0.6-2.9
		l-0.6,2.9L224.6,133z"/>
	<path fill="#FFFFFF" d="M244.1,144.2V118h5.2l12.2,19.6V118h4.2v26.1h-5l-12.4-20v20H244.1z"/>
	<path fill="#FFFFFF" d="M282.6,144.2h-12.4V118h12.3c1.9,0,3.5,0.4,4.8,1.1s2.3,1.6,3.1,2.8c0.8,1.2,1.4,2.5,1.7,4
		c0.3,1.5,0.5,3.1,0.5,4.8c0,1.7-0.1,3.4-0.4,5c-0.3,1.6-0.8,3.1-1.6,4.3c-0.8,1.3-1.8,2.3-3.1,3
		C286.3,143.8,284.6,144.2,282.6,144.2z M274.5,140.2h6.8c1.5,0,2.7-0.3,3.6-0.8c0.9-0.5,1.6-1.2,2-2.1c0.5-0.9,0.8-1.9,0.9-3
		s0.2-2.3,0.2-3.5c0-1.2-0.1-2.3-0.3-3.3c-0.2-1.1-0.5-2-1-2.8c-0.5-0.8-1.2-1.4-2.1-1.9c-0.9-0.5-2-0.7-3.5-0.7h-6.8V140.2z"/>
</g>
<g>
</g>
<g>
</g>
<g>
</g>
<g>
</g>
<g>
</g>
<g>
</g>
</svg>
